HIERARCHY
ROOT Hips
{
	OFFSET 0.000000 0.000000 0.000000 
	CHANNELS 6 Xposition Yposition Zposition Yrotation Zrotation Xrotation 
	JOINT Lumbar
	{
		OFFSET 0.000000 0.000000 0.000000 
		CHANNELS 3 Zrotation Xrotation Yrotation
		JOINT Neck
		{
			OFFSET 0.000000 0.445665 0.000000 
			CHANNELS 3 Zrotation Xrotation Yrotation
			End Site
			{
				OFFSET 0.000000 0.227535 0.000000 
			}
		}
		JOINT RightShoulder
		{
			OFFSET 0.019635 0.377685 0.194865 
			CHANNELS 3 Zrotation Xrotation Yrotation
			JOINT RightElbow
			{
				OFFSET 0.000000 -0.243375 0.000000 
				CHANNELS 2 Zrotation Yrotation
				JOINT RightWrist
				{
					OFFSET 0.000000 -0.264825 0.000000 
					CHANNELS 2 Zrotation Xrotation
					End Site
					{
						OFFSET 0.006600 -0.176220 0.000990 
					}
				}
			}
		}
		JOINT LeftShoulder
		{
			OFFSET 0.019635 0.377685 -0.194865 
			CHANNELS 3 Zrotation Xrotation Yrotation
			JOINT LeftElbow
			{
				OFFSET 0.000000 -0.243375 0.000000 
				CHANNELS 2 Zrotation Yrotation
				JOINT LeftWrist
				{
					OFFSET 0.000000 -0.264825 0.000000 
					CHANNELS 2 Zrotation Xrotation
					End Site
					{
						OFFSET 0.006600 -0.176220 -0.000990 
					}
				}
			}
		}
	}
	JOINT RightHip
	{
		OFFSET 0.052140 -0.069960 0.075570 
		CHANNELS 3 Zrotation Xrotation Yrotation
		JOINT RightKnee
		{
			OFFSET 0.000000 -0.402270 0.000000 
			CHANNELS 1 Zrotation
			JOINT RightAnkle
			{
				OFFSET 0.000000 -0.404085 0.000000 
				CHANNELS 3 Zrotation Xrotation Yrotation
				End Site
				{
					OFFSET 0.204105 -0.089430 0.008415 
				}
			}
		}
	}
	JOINT LeftHip
	{
		OFFSET 0.052140 -0.069960 -0.075570 
		CHANNELS 3 Zrotation Xrotation Yrotation
		JOINT LeftKnee
		{
			OFFSET 0.000000 -0.402270 0.000000 
			CHANNELS 1 Zrotation
			JOINT LeftAnkle
			{
				OFFSET 0.000000 -0.404085 0.000000 
				CHANNELS 3 Zrotation Xrotation Yrotation
				End Site
				{
					OFFSET 0.204105 -0.089430 -0.008415 
				}
			}
		}
	}
}
MOTION
Frames: 25
Frame Time: 0.02
0.00024 3e-05 -0.00036 -180.48139 -35.3657 -3.34111 44.20136 2.37647 -3.41279 -13.32784 -2.17457 -0.974 -62.56535 -81.27691 -89.57838 6.48104 100.80218 8.4592 3.84816 76.45992 93.04406 87.11574 5.78734 -54.2824 -16.77096 -4.00129 39.6401 -2.80638 -7.29796 -22.45439 -6.62328 -2.25467 -3.33021 43.8124 8.08722 2.24719 -27.84975 -6.44903 1.76162 3.07034
0.00022 1e-05 -0.00026 -180.42986 -35.1497 -3.33406 43.97131 2.36525 -3.43177 -13.3283 -2.15893 -0.99931 -62.56551 -81.22736 -89.04408 6.52111 100.7919 8.44298 3.76796 76.60453 93.03886 87.11915 5.7873 -54.44969 -16.74974 -4.01995 39.36603 -2.84856 -7.51869 -22.41388 -6.62209 -2.23468 -3.31986 43.55792 8.14696 2.51983 -27.82295 -6.4534 1.73012 3.05708
0.00021 -0 -0.00016 -180.37856 -34.93461 -3.32707 43.74219 2.35406 -3.45063 -13.32878 -2.1433 -1.02454 -62.56567 -81.17787 -88.51023 6.5612 100.7816 8.42677 3.68785 76.74908 93.03363 87.12112 5.78725 -54.61702 -16.72822 -4.03859 39.0931 -2.89066 -7.73891 -22.37355 -6.62091 -2.21473 -3.30952 43.3045 8.20657 2.7919 -27.79627 -6.45775 1.69869 3.04385
0.00019 -2e-05 -6e-05 -180.32721 -34.71933 -3.32005 43.51289 2.34288 -3.46955 -13.32924 -2.1277 -1.04978 -62.56583 -81.12847 -87.97741 6.60116 100.77134 8.4106 3.60788 76.89321 93.02839 87.12569 5.78721 -54.78341 -16.70729 -4.05721 38.81993 -2.93272 -7.959 -22.33318 -6.61973 -2.1948 -3.2992 43.05085 8.26613 3.06375 -27.76955 -6.4621 1.66728 3.03062
0.00018 -3e-05 4e-05 -180.27558 -34.50302 -3.31297 43.28254 2.33164 -3.48863 -13.32967 -2.11211 -1.07509 -62.56599 -81.07903 -87.44448 6.64108 100.76111 8.39442 3.52787 77.03755 93.02332 87.1284 5.78716 -54.95085 -16.68598 -4.07579 38.54548 -2.97485 -8.17953 -22.29262 -6.61854 -2.17485 -3.28885 42.79603 8.3258 3.33606 -27.7427 -6.46646 1.63582 3.01738
0.00016 -5e-05 0.00015 -180.22499 -34.29049 -3.30617 43.05602 2.32057 -3.50701 -13.33029 -2.0964 -1.10017 -62.56615 -81.02945 -86.90868 6.68154 100.75069 8.37816 3.44754 77.18266 93.01783 87.12662 5.78712 -55.11868 -16.66358 -4.09452 38.27572 -3.01689 -8.39909 -22.25278 -6.61737 -2.15489 -3.27853 42.54554 8.38528 3.60758 -27.71637 -6.47081 1.60446 3.00417
0.00015 -6e-05 0.00025 -180.17238 -34.07068 -3.2988 42.82213 2.30919 -3.52677 -13.3305 -2.08095 -1.12569 -62.56631 -80.98022 -86.37954 6.72079 100.74066 8.36209 3.36797 77.32533 93.01285 87.14402 5.78707 -55.28211 -16.64552 -4.11308 37.99693 -3.05905 -8.62037 -22.21154 -6.61617 -2.13496 -3.26818 42.2867 8.44509 3.88047 -27.68903 -6.47518 1.57291 2.99089
0.00013 -8e-05 0.00035 -180.1216 -33.85744 -3.29196 42.59488 2.29808 -3.54527 -13.3311 -2.06525 -1.1508 -62.56646 -80.93063 -85.84372 6.76128 100.73025 8.3458 3.28764 77.47157 93.00802 87.12526 5.78702 -55.45585 -16.61958 -4.13151 37.72629 -3.1011 -8.84004 -22.17157 -6.61499 -2.11502 -3.25786 42.0354 8.50455 4.15194 -27.66261 -6.47952 1.54156 2.97769
0.00012 -9e-05 0.00046 -180.07319 -33.65276 -3.28577 42.37629 2.28733 -3.56218 -13.33216 -2.04925 -1.17542 -62.56662 -80.88072 -85.30143 6.80283 100.71944 8.3294 3.20655 77.61707 93.00093 87.13537 5.78698 -55.61754 -16.59932 -4.15092 37.46624 -3.14304 -9.05796 -22.13325 -6.61385 -2.09501 -3.24756 41.79389 8.56381 4.42243 -27.63737 -6.48386 1.51036 2.96454
0.0001 -0.00011 0.00054 -180.01154 -33.40041 -3.27586 42.10952 2.27461 -3.58808 -13.33054 -2.03499 -1.20288 -62.56679 -80.83303 -84.80145 6.83693 100.71113 8.31413 3.13034 77.75152 92.99947 87.19899 5.78693 -55.77445 -16.59242 -4.16812 37.14715 -3.18572 -9.28663 -22.0857 -6.61253 -2.07523 -3.23708 41.49779 8.62489 4.70084 -27.60551 -6.4883 1.47803 2.95098
8e-05 -0.00012 0.00067 -179.97758 -33.2476 -3.27377 41.94334 2.26597 -3.59516 -13.33459 -2.01707 -1.22435 -62.56692 -80.78041 -84.20909 6.88762 100.69741 8.29616 3.04354 77.91902 92.99082 87.00955 5.78689 -55.98874 -16.52796 -4.18778 36.95139 -3.22676 -9.49215 -22.05744 -6.61158 -2.05505 -3.22702 41.31572 8.6817 4.96106 -27.58749 -6.49248 1.44822 2.93834
5e-05 -0.00014 0.00092 -180.02247 -33.37929 -3.29373 42.06463 2.26942 -3.54871 -13.35414 -1.98892 -1.22928 -62.56695 -80.71621 -83.38538 6.97753 100.66981 8.27343 2.92971 78.095 92.92221 87.31257 5.78693 -55.95906 -16.55374 -4.2329 37.10786 -3.2639 -9.63767 -22.08424 -6.61161 -2.03295 -3.21782 41.45914 8.7302 5.18313 -27.60886 -6.49624 1.42421 2.92771
-0 -0.00015 0.00121 -180.09471 -33.6089 -3.32145 42.28484 2.27679 -3.48369 -13.37936 -1.95712 -1.22823 -62.56693 -80.64671 -82.46462 7.08545 100.6365 8.24753 2.80492 78.31713 92.85271 87.17233 5.78698 -56.05089 -16.48205 -4.27743 37.3857 -3.29933 -9.75954 -22.13003 -6.61203 -2.01055 -3.20908 41.71479 8.77378 5.38481 -27.64388 -6.49968 1.40294 2.91811
-4e-05 -0.00016 0.00148 -180.15249 -33.78622 -3.34522 42.45224 2.28177 -3.42844 -13.40208 -1.92709 -1.23001 -62.56696 -80.57839 -81.57402 7.18905 100.60533 8.22133 2.68373 78.57476 92.81129 86.42036 5.78702 -56.36278 -16.28473 -4.30951 37.59889 -3.33507 -9.88958 -22.16571 -6.61227 -1.98887 -3.20035 41.91075 8.81735 5.58804 -27.67171 -6.50308 1.38111 2.90838
-9e-05 -0.00017 0.00175 -180.21861 -33.9964 -3.37072 42.65284 2.28937 -3.36765 -13.42464 -1.89655 -1.23131 -62.56695 -80.51526 -80.74281 7.27567 100.57649 8.20233 2.5681 78.60349 92.65758 88.97321 5.78707 -55.55625 -16.77836 -4.39364 37.85208 -3.37255 -10.02937 -22.20761 -6.61248 -1.96488 -3.19076 42.14332 8.87033 5.82355 -27.70368 -6.50729 1.35633 2.89719
-0.00013 -0.00019 0.00205 -180.2742 -34.16165 -3.39455 42.80797 2.29241 -3.31385 -13.44867 -1.86625 -1.23217 -62.5669 -80.44002 -79.76402 7.40281 100.54089 8.16776 2.43858 79.10814 92.73182 84.69713 5.78711 -57.0535 -15.84262 -4.37128 38.05114 -3.40629 -10.14462 -22.24112 -6.61288 -1.94546 -3.183 42.32661 8.90262 5.98729 -27.73031 -6.50971 1.33841 2.88932
-0.00016 -0.00021 0.00244 -180.29101 -34.17567 -3.41109 42.81094 2.28202 -3.28507 -13.47713 -1.83698 -1.23336 -62.56709 -80.33294 -78.40976 7.63086 100.49162 8.08956 2.27156 81.01877 93.48513 60.29314 5.78709 -65.35449 -10.69906 -4.03696 38.06699 -3.42769 -10.18565 -22.24618 -6.61352 -1.9403 -3.18094 42.34273 8.87856 5.956 -27.73833 -6.50746 1.33824 2.89015
-0.00019 -0.00024 0.00288 -180.29689 -34.14162 -3.42583 42.76513 2.26684 -3.26374 -13.50655 -1.80813 -1.2343 -62.56674 -80.21367 -76.9092 7.90091 100.43419 7.99605 2.09161 83.38888 94.45877 29.28377 5.78707 -75.88409 -4.17194 -3.59877 38.02491 -3.44579 -10.20466 -22.24225 -6.61439 -1.93951 -3.18059 42.30598 8.83402 5.85393 -27.74059 -6.50339 1.34494 2.8943
-0.00022 -0.00026 0.0033 -180.30965 -34.13169 -3.4419 42.74324 2.25378 -3.23826 -13.5344 -1.77946 -1.23528 -62.56701 -80.09997 -75.4697 8.1552 100.37922 7.91049 1.91842 85.47928 95.29899 2.21078 5.78704 -85.08066 1.53293 -3.22003 38.01199 -3.46712 -10.24232 -22.24284 -6.61528 -1.93566 -3.17895 42.29588 8.79902 5.78494 -27.74584 -6.50003 1.34886 2.89708
-0.00026 -0.00029 0.00371 -180.31502 -34.11571 -3.45603 42.71755 2.24119 -3.21542 -13.56722 -1.74921 -1.23634 -62.56754 -79.9865 -74.0481 8.39346 100.33287 7.8207 1.73984 87.86496 96.27925 -28.79886 5.78702 -95.62321 8.05137 -2.78988 37.99133 -3.4814 -10.24444 -22.24226 -6.61566 -1.9362 -3.17941 42.27884 8.76251 5.70972 -27.75 -6.49714 1.35153 2.89939
-0.00028 -0.00031 0.00415 -180.3332 -34.09946 -3.47374 42.68672 2.22634 -3.18902 -13.58985 -1.72225 -1.23727 -62.56509 -79.86905 -72.55781 8.67815 100.26223 7.73605 1.57116 89.75122 97.02074 -53.20229 5.78702 -103.90276 13.21092 -2.44179 37.97147 -3.50923 -10.31343 -22.24175 -6.61716 -1.92882 -3.176 42.26196 8.72479 5.633 -27.75488 -6.49287 1.35828 2.90337
-0.00025 -0.00032 0.0047 -180.38625 -34.09496 -3.50115 42.65434 2.20719 -3.15172 -13.5841 -1.70562 -1.2379 -62.56985 -79.74894 -70.8949 9.05275 100.16705 7.6704 1.41908 90.08521 97.04356 -57.47548 5.78705 -105.27688 14.20726 -2.34891 37.96694 -3.57859 -10.59183 -22.2432 -6.62162 -1.89677 -3.16062 42.25996 8.6844 5.55038 -27.76311 -6.48482 1.37587 2.912
-0.00019 -0.00034 0.00528 -180.45305 -34.09102 -3.53232 42.61769 2.18573 -3.1106 -13.56805 -1.69202 -1.23846 -62.5656 -79.624 -69.17095 9.47787 100.0417 7.61047 1.2799 89.9122 96.81926 -54.91763 5.78725 -104.31735 13.80184 -2.34171 37.96458 -3.6611 -10.93484 -22.24496 -6.62722 -1.85692 -3.14144 42.2589 8.64404 5.4712 -27.77217 -6.47549 1.39717 2.92208
-0.00015 -0.00035 0.00585 -180.51548 -34.08607 -3.56212 42.58223 2.16488 -3.07079 -13.55668 -1.6762 -1.23904 -62.55951 -79.49817 -67.48896 9.89804 99.90164 7.54701 1.1442 90.01042 96.712 -55.66751 5.78716 -104.49789 14.08441 -2.29307 37.96158 -3.73543 -11.23567 -22.24679 -6.63234 -1.82176 -3.12457 42.25606 8.60689 5.40452 -27.78083 -6.46702 1.41584 2.93085
-0.00012 -0.00037 0.00639 -180.56954 -34.08343 -3.5904 42.54892 2.14592 -3.03282 -13.5453 -1.66409 -1.23953 -62.59157 -79.3861 -65.74573 10.24329 99.87495 7.48615 0.96928 89.95082 96.59346 -55.8031 5.7873 -104.41826 14.19794 -2.25098 37.95607 -3.81893 -11.5897 -22.24758 -6.63732 -1.78192 -3.1053 42.25791 8.55657 5.28073 -27.78947 -6.4574 1.4384 2.94226
